<svg width="14" height="16" viewBox="0 0 14 16" fill="none" xmlns="http://www.w3.org/2000/svg">
<path d="M13.0979 9.61401L2.51325 15.516C2.29007 15.6402 2.0383 15.704 1.78289 15.7011C1.52747 15.6981 1.27726 15.6285 1.05702 15.4991C0.836774 15.3697 0.654142 15.1851 0.527197 14.9634C0.400253 14.7417 0.333399 14.4908 0.333252 14.2353V2.43134C0.333334 2.17581 0.400175 1.92474 0.527154 1.70299C0.654133 1.48125 0.836843 1.29652 1.05718 1.16712C1.27753 1.03772 1.52785 0.968126 1.78337 0.965242C2.03888 0.962358 2.29071 1.02628 2.51392 1.15068L13.0979 7.05201C13.326 7.1792 13.516 7.365 13.6483 7.5902C13.7806 7.8154 13.8503 8.07184 13.8503 8.33301C13.8503 8.59419 13.7806 8.85063 13.6483 9.07583C13.516 9.30103 13.326 9.48682 13.0979 9.61401Z" fill="#1A1D29"/>
</svg>
