<svg width="16" height="16" viewBox="0 0 16 16" fill="none" xmlns="http://www.w3.org/2000/svg">
<path d="M8.56 3.97667H13.0413C13.7486 3.97667 14.4269 4.25762 14.927 4.75772C15.427 5.25781 15.708 5.93609 15.708 6.64334V13.3333C15.708 14.0406 15.427 14.7189 14.927 15.219C14.4269 15.7191 13.7486 16 13.0413 16H2.91667C2.20942 16 1.53115 15.7191 1.03105 15.219C0.530951 14.7189 0.25 14.0406 0.25 13.3333V6.64334C0.25 5.93609 0.530951 5.25781 1.03105 4.75772C1.53115 4.25762 2.20942 3.97667 2.91667 3.97667H7.05733L4.40333 1.32267C4.33137 1.25075 4.27428 1.16536 4.23531 1.07137C4.19635 0.977386 4.17628 0.876646 4.17625 0.774904C4.17622 0.673162 4.19622 0.572411 4.23513 0.478401C4.27404 0.384392 4.33108 0.298966 4.403 0.227002C4.47492 0.155037 4.56031 0.0979436 4.6543 0.05898C4.74828 0.0200164 4.84902 -5.39256e-05 4.95076 -8.4877e-05C5.05251 -0.000115828 5.15326 0.0198933 5.24727 0.0587998C5.34128 0.0977062 5.4267 0.154748 5.49867 0.226669L7.80867 2.53667L10.118 0.226669C10.2633 0.0813301 10.4605 -0.000320439 10.666 -0.000320435C10.8715 -0.00032043 11.0687 0.0813301 11.214 0.226669C11.3593 0.372007 11.441 0.569129 11.441 0.774669C11.441 0.980209 11.3593 1.17733 11.214 1.32267L8.55933 3.97667H8.56ZM12.8453 9.13C13.1491 9.13 13.4404 9.00933 13.6552 8.79454C13.87 8.57975 13.9907 8.28843 13.9907 7.98467C13.9907 7.68091 13.87 7.38959 13.6552 7.1748C13.4404 6.96 13.1491 6.83934 12.8453 6.83934C12.5416 6.83934 12.2503 6.96 12.0355 7.1748C11.8207 7.38959 11.7 7.68091 11.7 7.98467C11.7 8.28843 11.8207 8.57975 12.0355 8.79454C12.2503 9.00933 12.5416 9.13 12.8453 9.13V9.13ZM12.8453 13.1373C12.998 13.141 13.1499 13.1141 13.292 13.0582C13.4342 13.0024 13.5637 12.9186 13.673 12.8119C13.7823 12.7052 13.8692 12.5778 13.9285 12.437C13.9878 12.2963 14.0183 12.1451 14.0183 11.9923C14.0183 11.8396 13.9878 11.6884 13.9285 11.5477C13.8692 11.4069 13.7823 11.2794 13.673 11.1728C13.5637 11.0661 13.4342 10.9823 13.292 10.9264C13.1499 10.8705 12.998 10.8437 12.8453 10.8473C12.5464 10.8545 12.2622 10.9783 12.0534 11.1923C11.8445 11.4062 11.7276 11.6934 11.7276 11.9923C11.7276 12.2913 11.8445 12.5784 12.0534 12.7924C12.2622 13.0063 12.5464 13.1301 12.8453 13.1373V13.1373Z" fill="white"/>
</svg>
