<svg width="160" height="87" viewBox="0 0 160 87" fill="none" xmlns="http://www.w3.org/2000/svg">
<path d="M112.499 55.9541C110.296 56.4588 104.5 56.7494 104.5 56.7494L103.766 59.0435C103.766 59.0435 106.656 58.7988 108.767 59.0129C108.767 59.0129 109.455 58.9364 109.532 59.7929C109.562 60.5882 109.471 61.4447 109.471 61.4447C109.471 61.4447 109.425 61.9647 108.691 62.087C107.895 62.2247 102.451 62.4235 102.451 62.4235L101.564 65.4058C101.564 65.4058 101.242 66.0941 101.976 65.8953C102.665 65.7117 108.369 64.6411 109.119 64.7941C109.914 64.9929 110.801 66.0482 110.541 67.027C110.235 68.22 104.546 71.86 101.074 71.6C101.074 71.6 99.2541 71.7223 97.7094 69.26C96.2718 66.92 98.26 62.4694 98.26 62.4694C98.26 62.4694 97.3576 60.3894 98.0153 59.7011C98.0153 59.7011 98.4129 59.3494 99.5447 59.2576L100.936 56.367C100.936 56.367 99.3459 56.4741 98.3976 55.3117C97.5106 54.1953 97.4494 53.6905 98.1224 53.3847C98.8412 53.0329 105.464 51.8247 110.021 51.9776C110.021 51.9776 111.612 51.8247 112.973 54.5776C112.958 54.5776 113.631 55.6941 112.499 55.9541ZM95.3541 67.0576C94.7729 68.4341 93.2282 69.9023 91.3165 68.9847C89.42 68.067 86.4071 61.9035 86.4071 61.9035C86.4071 61.9035 85.26 59.6094 85.0459 59.6553C85.0459 59.6553 84.8012 59.2117 84.6482 61.72C84.4953 64.2282 84.6788 69.107 83.6847 69.8717C82.7365 70.6364 81.5894 70.3305 80.9929 69.4282C80.4576 68.5411 80.2282 66.4305 80.5188 62.7294C80.8706 59.0282 81.7271 55.0823 82.8282 53.8435C83.9294 52.62 84.8165 53.507 85.1529 53.8282C85.1529 53.8282 86.6212 55.1588 89.0529 59.0741L89.4812 59.7929C89.4812 59.7929 91.6835 63.4941 91.9129 63.4788C91.9129 63.4788 92.0965 63.647 92.2494 63.5247C92.4788 63.4635 92.3871 62.2705 92.3871 62.2705C92.3871 62.2705 91.9282 58.2482 89.9247 51.427C89.9247 51.427 89.6188 50.5705 89.8329 49.7753C90.0318 48.9647 90.8423 49.347 90.8423 49.347C90.8423 49.347 93.9624 50.907 95.4612 55.9847C96.9447 61.1082 95.9353 65.6811 95.3541 67.0576ZM80.0294 54.0117C79.7694 54.5317 79.6165 55.2811 78.3012 55.48C78.3012 55.48 65.7141 56.3364 65.1177 57.2235C65.1177 57.2235 64.6741 57.7435 65.3624 57.8964C66.0506 58.0341 68.8953 58.4164 70.2718 58.4929C71.74 58.5082 76.6953 58.5541 78.4694 60.7717C78.4694 60.7717 79.5247 61.827 79.4788 64.2129C79.4329 66.66 79.0047 67.5164 78.0565 68.4035C77.0624 69.2294 68.5282 73.0529 63.0224 67.18C63.0224 67.18 60.4835 64.3505 63.8941 62.2094C63.8941 62.2094 66.3565 60.7258 72.6118 62.4694C72.6118 62.4694 74.5082 63.1576 74.4165 63.8458C74.3094 64.58 72.8565 65.36 70.7459 65.3141C68.6965 65.2529 67.1977 64.2741 67.4882 64.427C67.7635 64.5341 65.2859 63.2341 64.5212 64.1211C63.7565 64.9317 63.94 65.4364 64.6894 65.9411C66.6012 67.027 73.9882 66.6447 76.1906 64.1976C76.1906 64.1976 77.0624 63.2035 75.7318 62.3929C74.4012 61.6282 70.5929 61.1694 69.1094 61.0929C67.6871 61.0164 62.3953 61.1082 61.6306 59.7011C61.6306 59.7011 60.8659 58.7529 61.7071 56.0611C62.5941 53.247 68.7577 52.1611 71.4188 51.9164C71.4188 51.9164 78.7447 51.6564 80.0906 53.1553C80.0753 53.1553 80.2588 53.507 80.0294 54.0117ZM59.2294 70.5141C58.3424 71.1717 56.4612 70.8811 55.9259 70.147C55.3906 69.4894 55.2071 66.8741 55.3141 62.7752C55.4212 58.6305 55.5129 53.4917 56.4 52.6811C57.3482 51.8553 57.9294 52.5741 58.2965 53.14C58.6941 53.6905 59.1682 54.3023 59.2753 55.6023C59.3671 56.9023 59.673 63.7235 59.673 63.7235C59.673 63.7235 60.0706 69.8717 59.2294 70.5141ZM61.1412 48.5211C58.5565 49.3776 56.7824 49.087 55.2835 48.4447C54.6259 49.5917 54.2435 49.9435 53.7388 50.02C53.0047 50.0964 52.3471 48.9188 52.2247 48.5364C52.1024 48.2458 51.7506 47.7564 52.1788 46.5941C50.7106 45.2788 50.6035 43.5047 50.8482 42.3117C51.2153 40.9353 53.6929 35.7047 61.2329 35.0929C61.2329 35.0929 64.9188 34.8176 65.5459 36.7905H65.6529C65.6529 36.7905 69.2318 36.8058 69.1553 39.987C69.1094 43.1835 65.1788 47.16 61.1412 48.5211ZM54.1059 41.44C53.3412 42.6635 53.3106 43.3976 53.6624 43.9023C54.5341 42.5717 56.1247 40.4764 58.4647 38.8858C56.66 39.0388 55.1459 39.8188 54.1059 41.44ZM64.5212 39.3906C62.1506 39.7423 58.48 42.9235 56.7365 45.5235C59.4129 46.0129 64.1388 45.8294 66.2341 41.5623C66.2188 41.5623 67.2282 38.9164 64.5212 39.3906ZM128.879 64.0294C127.456 66.507 123.465 71.6764 118.142 70.4682C116.384 74.7352 114.915 79.0329 114.074 85.487C114.074 85.487 113.891 86.7411 112.851 86.2976C111.826 85.9305 110.113 84.2176 109.776 81.847C109.409 78.727 110.801 73.4505 113.631 67.4094C112.805 66.0635 112.239 64.1364 112.728 61.3988C112.728 61.3988 113.447 56.3211 118.54 51.7329C118.54 51.7329 119.152 51.1976 119.504 51.3658C119.901 51.5341 119.718 53.1858 119.396 53.9811C119.075 54.7764 116.796 58.7223 116.796 58.7223C116.796 58.7223 115.374 61.3835 115.772 63.4788C118.448 59.3647 124.535 51.06 128.313 53.6753C129.582 54.5776 130.164 56.5505 130.164 58.6764C130.148 60.5576 129.705 62.5458 128.879 64.0294ZM127.778 57.5141C127.778 57.5141 127.564 55.8776 125.973 57.6823C124.596 59.1964 122.119 62.0564 120.115 65.9258C122.211 65.6964 124.229 64.5494 124.841 63.9682C125.835 63.0811 128.145 60.6953 127.778 57.5141ZM53.5247 59.5941C53.2341 63.2953 51.8118 69.52 41.7329 72.5941C35.08 74.5976 28.7941 73.6341 25.3682 72.7623C25.2918 74.1235 25.1388 74.7047 24.9247 74.9341C24.6341 75.2247 22.4624 76.4788 21.2694 74.7047C20.7341 73.8635 20.4588 72.3341 20.3059 70.9729C12.5977 67.4247 9.04942 62.3164 8.91178 62.087C8.74354 61.9188 6.98472 60.0835 8.74354 57.8353C10.3953 55.8011 15.7941 53.767 20.6577 52.9411C20.8259 48.7811 21.3153 45.6458 21.8965 44.2082C22.6 42.5411 23.4871 44.04 24.2518 45.1717C24.8941 46.0129 25.2765 49.6376 25.3071 52.5282C28.4882 52.3753 30.3694 52.6047 33.9177 53.247C38.5365 54.0882 41.6259 56.4435 41.3506 59.12C41.1518 61.7505 38.7353 62.8364 37.8177 62.9129C36.8541 62.9894 35.3553 62.3011 35.3553 62.3011C34.3306 61.8117 35.2788 61.3835 36.5177 60.8482C37.8635 60.1905 37.5577 59.5176 37.5577 59.5176C37.0529 58.0494 31.0577 57.0247 25.0929 57.0247C25.0624 60.3129 25.2306 65.7729 25.3071 68.9541C29.4824 69.7494 32.6024 69.5964 32.6024 69.5964C32.6024 69.5964 47.8353 69.1682 48.2941 59.4411C48.7682 49.6988 33.1071 40.3541 21.5294 37.387C9.96707 34.3588 3.42119 36.4694 2.8553 36.76C2.24354 37.0658 2.80942 37.1576 2.80942 37.1576C2.80942 37.1576 3.43648 37.2494 4.52236 37.6164C5.66942 37.9835 4.78236 38.58 4.78236 38.58C2.80942 39.207 0.591774 38.8094 0.163538 37.907C-0.264697 37.0047 0.454129 36.1941 1.28001 35.0317C2.10589 33.8082 3.00825 33.8541 3.00825 33.8541C17.3082 28.8988 34.7282 37.8611 34.7282 37.8611C51.0471 46.1353 53.8306 55.8317 53.5247 59.5941ZM10.3647 59.0894C8.74354 59.8847 9.86001 61.0317 9.86001 61.0317C12.9035 64.3047 16.6506 66.3541 20.2141 67.6235C20.6271 61.98 20.5659 59.9917 20.6118 57.147C15.0447 57.5294 11.833 58.4164 10.3647 59.0894Z" fill="white"/>
<path d="M159.161 57.927V59.9458C159.161 60.3893 158.809 60.7411 158.366 60.7411H148.746C148.746 61.2458 148.761 61.6893 148.761 62.1023C148.761 65.0846 148.639 67.5164 148.348 70.254C148.302 70.667 147.966 70.9728 147.568 70.9728H145.488C145.274 70.9728 145.075 70.8811 144.938 70.7281C144.8 70.5752 144.724 70.3611 144.754 70.147C145.045 67.4246 145.182 65.0234 145.182 62.1023C145.182 61.674 145.182 61.2305 145.167 60.7411H135.654C135.211 60.7411 134.859 60.3893 134.859 59.9458V57.927C134.859 57.4834 135.211 57.1317 135.654 57.1317H145.029C144.831 53.8434 144.433 50.6775 143.791 47.4658C143.76 47.267 143.806 47.0681 143.928 46.9152C144.051 46.7622 144.234 46.6705 144.433 46.6705H146.681C147.033 46.6705 147.324 46.9152 147.4 47.267C148.027 50.5858 148.425 53.8128 148.624 57.1317H158.366C158.794 57.1317 159.161 57.4987 159.161 57.927Z" fill="white"/>
<path d="M146.069 41.9141C141.099 29.6941 132.702 19.2788 121.782 11.7847C110.602 4.12231 97.4953 0.0693665 83.8836 0.0693665C61.3706 0.0693665 40.4788 11.2494 28.0141 29.9847C27.8765 30.1835 27.8459 30.4435 27.9224 30.6729C27.9988 30.9176 28.1824 31.0858 28.4118 31.1623L30.1553 31.7588C30.2624 31.7894 30.3694 31.8047 30.4612 31.8047C30.7824 31.8047 31.0883 31.6364 31.2718 31.3764C36.9918 22.9647 44.7306 15.9753 53.6624 11.1423C62.8847 6.15643 73.3306 3.51054 83.8683 3.51054C96.6083 3.51054 108.889 7.2729 119.412 14.3694C129.674 21.2976 137.642 30.9788 142.46 42.3423C142.598 42.6788 142.934 42.9082 143.301 42.9082H145.381C145.626 42.9082 145.855 42.7858 145.978 42.587C146.131 42.3882 146.161 42.1435 146.069 41.9141ZM30.4612 31.2847C30.4153 31.2847 30.3694 31.2694 30.3236 31.2541C30.3694 31.2694 30.4153 31.2847 30.4612 31.2847C30.4765 31.2847 30.4918 31.2847 30.4918 31.2847C30.4918 31.2847 30.4765 31.2847 30.4612 31.2847ZM142.873 42.6329C142.919 42.6635 142.965 42.6941 143.011 42.7094C142.965 42.6788 142.919 42.6635 142.873 42.6329Z" fill="url(#paint0_radial_13_1273)"/>
<defs>
<radialGradient id="paint0_radial_13_1273" cx="0" cy="0" r="1" gradientUnits="userSpaceOnUse" gradientTransform="translate(144.115 42.8311) scale(116.254 116.254)">
<stop offset="0.00708621" stop-color="white"/>
<stop offset="0.0300991" stop-color="#CBFFFF"/>
<stop offset="0.0570069" stop-color="#96FFFF"/>
<stop offset="0.0842769" stop-color="#68FFFF"/>
<stop offset="0.1113" stop-color="#43FFFF"/>
<stop offset="0.1382" stop-color="#25FFFF"/>
<stop offset="0.1647" stop-color="#11FFFF"/>
<stop offset="0.1908" stop-color="#04FFFF"/>
<stop offset="0.2159" stop-color="#00FFFF"/>
<stop offset="1" stop-color="#0000FF" stop-opacity="0"/>
</radialGradient>
</defs>
</svg>
